<?xml version="1.0" encoding="UTF-8"?>
<svg width="21px" height="20px" viewBox="0 0 21 20" version="1.1" xmlns="http://www.w3.org/2000/svg" xmlns:xlink="http://www.w3.org/1999/xlink">
    <!-- Generator: sketchtool 58 (101010) - https://sketch.com -->
    <title>C808592E-53A3-4DC9-8ECD-961EBBA2927B</title>
    <desc>Created with sketchtool.</desc>
    <g id="Page-1" stroke="none" stroke-width="1" fill="none" fill-rule="evenodd">
        <g id="4-0" transform="translate(-177.000000, -738.000000)" fill="#8430CB">
            <g id="Bars-/-Toolbar-/-Icon-+-Text-/-5-Copy-1.-Bars-/-4.-Toolbar-/-1.-Icon-+-Text-/-5---1" transform="translate(0.000000, 730.000000)">
                <g id="â™¦ï¸-Tab-3-1.-Bars-/-4.-Toolbar-/-Overides-/-Icon-+-Text-/-Unactive" transform="translate(150.000000, 0.000000)">
                    <g id="ðŸ§¡-Icon-Icons/16/Checklist_selected" transform="translate(25.500000, 6.000000)">
                        <g id="Icons/16/Checklist_default" transform="translate(2.000000, 2.000000)">
                            <path d="M15.7954545,0.134680135 L4.48232323,0.134680135 C2.6971604,0.134680135 1.25,1.58184054 1.25,3.36700337 L1.25,15.959596 C1.25,17.7447588 2.6971604,19.1919192 4.48232323,19.1919192 L15.7954545,19.1919192 C17.5806174,19.1919192 19.0277778,17.7447588 19.0277778,15.959596 L19.0277778,3.36700337 C19.0277778,1.58184054 17.5806174,0.134680135 15.7954545,0.134680135 Z M7.98400673,1.21212121 L12.293771,1.21212121 L12.293771,2.28956229 C12.293771,2.58708943 12.0525776,2.82828283 11.7550505,2.82828283 L8.52272727,2.82828283 C8.22520013,2.82828283 7.98400673,2.58708943 7.98400673,2.28956229 L7.98400673,1.21212121 Z M17.9503367,15.959596 C17.9503367,17.1497045 16.9855631,18.1144781 15.7954545,18.1144781 L4.48232323,18.1144781 C3.29221468,18.1144781 2.32744108,17.1497045 2.32744108,15.959596 L2.32744108,3.36700337 C2.32744108,2.17689482 3.29221468,1.21212121 4.48232323,1.21212121 L6.90656566,1.21212121 L6.90656566,2.28956229 C6.90656566,3.1821437 7.63014586,3.90572391 8.52272727,3.90572391 L11.7550505,3.90572391 C12.6476319,3.90572391 13.3712121,3.1821437 13.3712121,2.28956229 L13.3712121,1.21212121 L15.7954545,1.21212121 C16.9855631,1.21212121 17.9503367,2.17689482 17.9503367,3.36700337 L17.9503367,15.959596 Z" id="Shape"></path>
                            <path d="M15.2459596,8.14814815 L4.98063973,8.14814815 C4.68311259,8.14814815 4.44191919,8.38934155 4.44191919,8.68686869 C4.44191919,8.98439582 4.68311259,9.22558923 4.98063973,9.22558923 L15.2459596,9.22558923 C15.5434867,9.22558923 15.7846801,8.98439582 15.7846801,8.68686869 C15.7846801,8.38934155 15.5434867,8.14814815 15.2459596,8.14814815 Z" id="Path"></path>
                            <path d="M15.2459596,12.5925926 L4.98063973,12.5925926 C4.68311259,12.5925926 4.44191919,12.833786 4.44191919,13.1313131 C4.44191919,13.4288403 4.68311259,13.6700337 4.98063973,13.6700337 L15.2459596,13.6700337 C15.5434867,13.6700337 15.7846801,13.4288403 15.7846801,13.1313131 C15.7846801,12.833786 15.5434867,12.5925926 15.2459596,12.5925926 Z" id="Path"></path>
                        </g>
                    </g>
                </g>
            </g>
        </g>
    </g>
</svg>