<?xml version="1.0" encoding="UTF-8"?>
<svg width="17px" height="16px" viewBox="0 0 17 16" version="1.1" xmlns="http://www.w3.org/2000/svg" xmlns:xlink="http://www.w3.org/1999/xlink">
    <!-- Generator: sketchtool 58 (101010) - https://sketch.com -->
    <title>3ACC132D-C255-4F69-AF40-B8ADD21BB2F3</title>
    <desc>Created with sketchtool.</desc>
    <g id="Page-1" stroke="none" stroke-width="1" fill="none" fill-rule="evenodd">
        <g id="5-1" transform="translate(-29.000000, -740.000000)" fill="#ABABAB" fill-rule="nonzero">
            <g id="Bars-/-Toolbar-/-Icon-+-Text-/-5-Copy-2" transform="translate(0.000000, 730.000000)">
                <g id="â™¦ï¸-Tab-1-1.-Bars-/-4.-Toolbar-/-Overides-/-Icon-+-Text-/-Active">
                    <g id="ðŸ§¡-Icon-Icons/16/Dashboard_default" transform="translate(25.500000, 6.000000)">
                        <g id="Icons/16/Dashboard_default" transform="translate(4.000000, 4.000000)">
                            <path d="M6.30666667,6.68761905 L0.380952381,6.68761905 C0.170558191,6.68761905 4.52970994e-14,6.51706086 4.52970994e-14,6.30666667 L4.52970994e-14,0.380952381 C4.52970994e-14,0.170558191 0.170558191,2.72670775e-13 0.380952381,2.72670775e-13 L6.30666667,2.72670775e-13 C6.51706086,2.72670775e-13 6.68761905,0.170558191 6.68761905,0.380952381 L6.68761905,6.30666667 C6.68761905,6.51706086 6.51706086,6.68761905 6.30666667,6.68761905 Z M0.761904762,5.92571429 L5.92571429,5.92571429 L5.92571429,0.761904762 L0.761904762,0.761904762 L0.761904762,5.92571429 Z" id="Shape"></path>
                            <path d="M15.6190476,6.68761905 L9.69333333,6.68761905 C9.48293914,6.68761905 9.31238095,6.51706086 9.31238095,6.30666667 L9.31238095,0.380952381 C9.31238095,0.170558191 9.48293914,2.72670775e-13 9.69333333,2.72670775e-13 L15.6190476,2.72670775e-13 C15.8294418,2.72670775e-13 16,0.170558191 16,0.380952381 L16,6.30666667 C16,6.51706086 15.8294418,6.68761905 15.6190476,6.68761905 Z M10.0742857,5.92571429 L15.2380952,5.92571429 L15.2380952,0.761904762 L10.0742857,0.761904762 L10.0742857,5.92571429 Z" id="Shape"></path>
                            <path d="M15.6190476,16 L9.69333333,16 C9.48293914,16 9.31238095,15.8294418 9.31238095,15.6190476 L9.31238095,9.69333333 C9.31238095,9.48293914 9.48293914,9.31238095 9.69333333,9.31238095 L15.6190476,9.31238095 C15.8294418,9.31238095 16,9.48293914 16,9.69333333 L16,15.6190476 C16,15.8294418 15.8294418,16 15.6190476,16 Z M10.0742857,15.2380952 L15.2380952,15.2380952 L15.2380952,10.0742857 L10.0742857,10.0742857 L10.0742857,15.2380952 Z" id="Shape"></path>
                            <path d="M6.30666667,16 L0.380952381,16 C0.170558191,16 4.52970994e-14,15.8294418 4.52970994e-14,15.6190476 L4.52970994e-14,9.69333333 C4.52970994e-14,9.48293914 0.170558191,9.31238095 0.380952381,9.31238095 L6.30666667,9.31238095 C6.51706086,9.31238095 6.68761905,9.48293914 6.68761905,9.69333333 L6.68761905,15.6190476 C6.68761905,15.8294418 6.51706086,16 6.30666667,16 Z M0.761904762,15.2380952 L5.92571429,15.2380952 L5.92571429,10.0742857 L0.761904762,10.0742857 L0.761904762,15.2380952 Z" id="Shape"></path>
                        </g>
                    </g>
                </g>
            </g>
        </g>
    </g>
</svg>