<?xml version="1.0" encoding="UTF-8"?>
<svg width="21px" height="20px" viewBox="0 0 21 20" version="1.1" xmlns="http://www.w3.org/2000/svg" xmlns:xlink="http://www.w3.org/1999/xlink">
    <!-- Generator: sketchtool 58 (101010) - https://sketch.com -->
    <title>BE09FE96-69F4-488C-A6B5-CA484D2D5AB7</title>
    <desc>Created with sketchtool.</desc>
    <g id="Page-1" stroke="none" stroke-width="1" fill="none" fill-rule="evenodd">
        <g id="4-1" transform="translate(-102.000000, -738.000000)" fill="#ABABAB" fill-rule="nonzero">
            <g id="Bars-/-Toolbar-/-Icon-+-Text-/-5-Copy-1.-Bars-/-4.-Toolbar-/-1.-Icon-+-Text-/-5---1" transform="translate(0.000000, 730.000000)">
                <g id="â™¦ï¸-Tab-2-1.-Bars-/-4.-Toolbar-/-Overides-/-Icon-+-Text-/-Unactive" transform="translate(75.000000, 0.000000)">
                    <g id="ðŸ§¡-Icon-Icons/16/Financials_default" transform="translate(25.500000, 6.000000)">
                        <g id="Icons/16/Financials_default" transform="translate(2.000000, 2.000000)">
                            <path d="M17.8012685,3.72093023 L15.8139535,3.72093023 L15.8139535,2.20295983 C15.8139535,1.50528541 15.5010571,0.862579281 14.9429175,0.44397463 C14.384778,0.0253699789 13.6828753,-0.105708245 13.0147992,0.088794926 L0.405919662,3.74630021 L0.405919662,3.74630021 C0.194503171,3.80549683 0.0380549683,4 0.0380549683,4.23255814 L0.0380549683,17.3319239 C0.0380549683,18.5454545 1.02325581,19.5348837 2.23678647,19.5348837 L17.7970402,19.5348837 C19.0105708,19.5348837 19.9957852,18.5454545 19.9957852,17.3319239 L19.9957852,5.92389006 C20,4.71035941 19.0147992,3.72093023 17.8012685,3.72093023 Z M13.2980973,1.06553911 C13.6575053,0.959830867 14.0338266,1.03171247 14.3340381,1.25581395 C14.6342495,1.47991543 14.7991543,1.82663848 14.7991543,2.20295983 L14.7991543,3.72093023 L4.12262156,3.72093023 L13.2980973,1.06553911 Z M17.8012685,18.5200846 L2.2410148,18.5200846 C1.58985201,18.5200846 1.05708245,17.9830867 1.05708245,17.3319239 L1.05708245,4.73572939 L17.8012685,4.73572939 C18.4524313,4.73572939 18.9852008,5.27272727 18.9852008,5.92389006 L18.9852008,7.99154334 L14.3551797,7.99154334 C13.141649,7.99154334 12.1775899,8.98520085 12.1775899,10.1987315 L12.1775899,13.0613108 C12.1775899,14.2748414 13.141649,15.2684989 14.3551797,15.2684989 L18.9852008,15.2684989 L18.9852008,17.3361522 C18.9852008,17.9830867 18.4524313,18.5200846 17.8012685,18.5200846 Z M18.9852008,9.00634249 L18.9852008,14.2494715 L14.3551797,14.2494715 C13.7040169,14.2494715 13.192389,13.7124736 13.192389,13.0570825 L13.192389,10.1945032 C13.192389,9.54334038 13.7040169,9.00211416 14.3551797,9.00211416 L18.9852008,9.00211416 L18.9852008,9.00634249 Z" id="Shape"></path>
                        </g>
                    </g>
                </g>
            </g>
        </g>
    </g>
</svg>